<svg width="180" height="180" viewBox="0 0 180 180" fill="none" xmlns="http://www.w3.org/2000/svg">
<path fill-rule="evenodd" clip-rule="evenodd" d="M90.1012 17.7019C73.1317 17.7019 59.3752 31.4584 59.3752 48.4279V63.1923H49.0001H45.0098V67.1827V105.091V143V146.99H49.0001H81.7213V139.01H52.9905V105.091V71.1731H81.7213V63.1923H67.356V48.4279C67.356 35.866 77.5393 25.6827 90.1012 25.6827C102.663 25.6827 112.846 35.866 112.846 48.4279V62.3942H99.2789V70.375H128.01V104.293V138.212H99.2789V146.192H132H135.99V142.202V104.293V66.3846V62.3942H132H120.827V48.4279C120.827 31.4584 107.071 17.7019 90.1012 17.7019ZM65.7596 86.3366H116.038V94.3173H65.7596V86.3366ZM100.875 101.5H65.7596V109.481H100.875V101.5ZM65.7596 115.866H108.856V123.846H65.7596V115.866Z" fill="white"/>
</svg>
