<svg width="664" height="272" viewBox="0 0 664 272" fill="none" xmlns="http://www.w3.org/2000/svg">
<path d="M130.183 201.992L63.2878 133.643M63.2878 133.643L42.6964 113.822L92.5913 63.9271L131.747 63.9272L63.2878 133.643Z" stroke="white" stroke-width="13.6698"/>
<path opacity="0.8" d="M178.194 143.864L196.398 125.604M135.5 101L153.734 82.4511M153.734 82.4511L167.319 68.5333L188.626 89.9286L210.448 111.511L196.398 125.604M153.734 82.4511L196.398 125.604" stroke="white" stroke-width="13.6698"/>
<path opacity="0.8" d="M101.387 134.146L122.826 156.106L143.798 177.83M101.387 134.146L125.26 109.682M101.387 134.146L143.798 177.83M143.798 177.83L166.794 154.649" stroke="white" stroke-width="13.6698"/>
<path d="M252.938 96.1203V87.1028H257.703C261.187 87.1028 262.673 88.8448 262.673 91.6116C262.673 94.3783 261.187 96.1203 257.703 96.1203H252.938ZM271.588 91.6116C271.588 85.0021 267.182 80.0322 258.369 80.0322H244.177V116H252.938V103.088H258.369C267.54 103.088 271.588 97.555 271.588 91.6116ZM296.458 91.714C296.458 94.532 294.921 96.2228 291.642 96.2228H286.211V87.3077H291.642C294.921 87.3077 296.458 89.0497 296.458 91.714ZM277.449 80.0322V116H286.211V102.422H288.311L295.792 116H305.68L297.38 101.756C302.914 100.117 305.373 95.8642 305.373 91.3554C305.373 85.1045 300.967 80.0322 292.154 80.0322H277.449ZM347.577 97.9136C347.577 87.1028 339.431 79.5198 329.183 79.5198C318.987 79.5198 310.687 87.1028 310.687 97.9136C310.687 108.724 318.987 116.359 329.183 116.359C339.379 116.359 347.577 108.724 347.577 97.9136ZM319.653 97.9136C319.653 91.5091 323.342 87.4614 329.183 87.4614C334.922 87.4614 338.662 91.5091 338.662 97.9136C338.662 104.216 334.922 108.366 329.183 108.366C323.342 108.366 319.653 104.216 319.653 97.9136ZM367.227 80.0322H353.751V116H367.227C378.703 116 386.081 108.673 386.081 98.0161C386.081 87.3077 378.703 80.0322 367.227 80.0322ZM362.513 108.417V87.5127H366.663C373.272 87.5127 377.166 91.4066 377.166 98.0161C377.166 104.626 373.272 108.417 366.663 108.417H362.513ZM402.95 97.9648C402.95 108.724 410.43 116.256 421.036 116.256C429.592 116.256 436.048 111.491 438.098 103.703H428.465C426.979 106.777 424.264 108.315 420.933 108.315C415.554 108.315 411.865 104.318 411.865 97.9648C411.865 91.6116 415.554 87.6151 420.933 87.6151C424.264 87.6151 426.979 89.1522 428.465 92.2264H438.098C436.048 84.4385 429.592 79.6223 421.036 79.6223C410.43 79.6223 402.95 87.2052 402.95 97.9648ZM469.305 116H478.579L465.565 80.0322H455.42L442.406 116H451.577L453.729 109.647H467.153L469.305 116ZM464.899 102.884H456.035L460.441 89.7158L464.899 102.884ZM502.848 91.714C502.848 94.532 501.311 96.2228 498.032 96.2228H492.601V87.3077H498.032C501.311 87.3077 502.848 89.0497 502.848 91.714ZM483.84 80.0322V116H492.601V102.422H494.702L502.182 116H512.071L503.771 101.756C509.304 100.117 511.763 95.8642 511.763 91.3554C511.763 85.1045 507.357 80.0322 498.545 80.0322H483.84ZM540.595 80.0322H518.563V116H540.595V108.981H527.325V101.09H539.058V94.3271H527.325V87.0515H540.595V80.0322ZM569.615 80.0322H547.583V116H569.615V108.981H556.344V101.09H568.077V94.3271H556.344V87.0515H569.615V80.0322ZM595.611 91.714C595.611 94.532 594.074 96.2228 590.795 96.2228H585.364V87.3077H590.795C594.074 87.3077 595.611 89.0497 595.611 91.714ZM576.603 80.0322V116H585.364V102.422H587.465L594.945 116H604.834L596.533 101.756C602.067 100.117 604.526 95.8642 604.526 91.3554C604.526 85.1045 600.12 80.0322 591.307 80.0322H576.603Z" fill="white"/>
<path d="M252.106 182H261.38L254.719 146.032H244.574L225.207 182H234.378L237.657 175.647H251.081L252.106 182ZM250.056 168.986H241.09L247.956 155.665L250.056 168.986ZM267.814 163.965C265.919 174.724 272.016 182.256 282.622 182.256C291.178 182.256 298.505 177.491 301.938 169.703H292.305C290.307 172.675 287.284 174.263 283.954 174.263C278.574 174.263 275.602 170.216 276.729 163.965C277.805 157.714 282.16 153.718 287.54 153.718C290.922 153.718 293.381 155.255 294.303 158.226H303.936C303.27 150.438 297.634 145.622 289.077 145.622C278.471 145.622 269.71 153.205 267.814 163.965ZM307.574 163.965C305.678 174.724 311.775 182.256 322.381 182.256C330.938 182.256 338.264 177.491 341.697 169.703H332.065C330.067 172.675 327.044 174.263 323.713 174.263C318.333 174.263 315.362 170.216 316.489 163.965C317.565 157.714 321.92 153.718 327.3 153.718C330.681 153.718 333.141 155.255 334.063 158.226H343.695C343.029 150.438 337.393 145.622 328.837 145.622C318.231 145.622 309.47 153.205 307.574 163.965ZM373.976 146.032H351.945L345.591 182H367.623L368.853 175.083H355.582L357.017 167.039H368.75L369.929 160.43H358.195L359.476 152.949H372.747L373.976 146.032ZM380.396 146.032L374.043 182H394.281L395.46 175.339H383.983L389.158 146.032H380.396ZM427.577 146.032H405.545L399.192 182H421.224L422.453 175.083H409.183L410.618 167.039H422.351L423.529 160.43H411.796L413.077 152.949H426.347L427.577 146.032ZM450.956 157.714C450.444 160.532 448.599 162.223 445.32 162.223H439.889L441.477 153.205H446.908C450.188 153.205 451.469 154.999 450.956 157.714ZM433.997 146.032L427.644 182H436.405L438.813 168.422H440.914L445.986 182H455.875L450.085 167.756C455.926 166.117 459.154 161.864 459.922 157.355C461.05 151.105 457.514 146.032 448.702 146.032H433.997ZM486.341 182H495.615L488.954 146.032H478.81L459.442 182H468.614L471.893 175.647H485.317L486.341 182ZM484.292 168.986H475.326L482.191 155.665L484.292 168.986ZM503.485 152.949H513.014L507.891 182H516.652L521.776 152.949H531.357L532.535 146.032H504.714L503.485 152.949ZM569.79 160.481C569.79 151.566 563.795 145.52 554.419 145.52C541.968 145.52 533.156 154.486 533.156 167.244C533.156 176.21 539.202 182.359 548.424 182.359C561.028 182.359 569.79 173.239 569.79 160.481ZM541.917 166.322C541.917 159.456 546.272 153.564 553.292 153.564C558.262 153.564 561.08 156.587 561.08 161.454C561.08 168.269 556.724 174.263 549.756 174.263C544.684 174.263 541.917 171.189 541.917 166.322ZM595.634 157.714C595.122 160.532 593.277 162.223 589.998 162.223H584.567L586.155 153.205H591.587C594.866 153.205 596.147 154.999 595.634 157.714ZM578.675 146.032L572.322 182H581.083L583.491 168.422H585.592L590.664 182H600.553L594.763 167.756C600.604 166.117 603.832 161.864 604.601 157.355C605.728 151.105 602.192 146.032 593.38 146.032H578.675Z" fill="white"/>
</svg>
